<svg width="95" height="69" viewBox="0 0 95 69" fill="none" xmlns="http://www.w3.org/2000/svg">
<path d="M50.7626 16.098C44.8693 16.1083 40.4427 19.1335 40.8665 25.5053C41.1318 29.4954 43.5371 32.7635 46.0787 37.759C46.6442 38.8653 47.0616 39.9018 47.357 40.8723C47.357 40.8723 48.8808 44.4581 47.0632 48.2377C45.251 52.0197 40.0119 54.3125 37.4632 55.538C33.4738 57.4512 30.5822 61.4706 34.4535 66.4423C31.3694 63.8223 24.81 57.838 19.692 50.3519C13.4676 41.2368 11.3054 30.8685 15.6306 25.383C18.8905 21.2476 22.2075 19.7656 25.2622 19.7267C32.4711 19.7228 38.1887 27.7108 38.1887 27.7108C38.1887 27.7108 38.1689 27.6234 38.1261 27.4678C38.2449 27.6227 38.3083 27.7108 38.3083 27.7108C38.3083 27.7108 35.617 16.1282 25.0959 16.0297C22.4348 15.9829 19.2683 16.673 15.511 18.4814C1.91611 25.024 6.14625 36.748 8.70682 41.6951C12.377 48.7785 18.4604 58.0413 36.0867 67.879C36.0867 67.879 36.0328 67.8377 35.933 67.7591C36.0209 67.802 36.112 67.8425 36.2047 67.879C36.7456 68.0927 37.365 68.1951 38.0477 68.1935C44.5097 68.2992 56.9673 58.9086 64.8557 47.4308C76.6171 29.7503 70.1551 21.2413 57.5399 17.2043C55.1924 16.453 52.8813 16.0798 50.7626 16.098ZM14.715 12.1794C15.9252 11.1533 16.0733 9.33462 15.0516 8.12188C14.4695 7.43251 13.6347 7.08545 12.8007 7.10292C12.1251 7.08863 11.4408 7.31259 10.8841 7.78752C9.67387 8.81363 9.52418 10.63 10.5475 11.8443C11.1296 12.5329 11.9652 12.8791 12.8007 12.8617C13.4763 12.876 14.159 12.652 14.715 12.1794ZM7.81027 15.5921C8.65772 14.8694 8.76306 13.5995 8.04787 12.7481C7.63602 12.2628 7.0436 12.0214 6.45276 12.0381C5.97359 12.0238 5.48809 12.1794 5.09446 12.5138C4.2478 13.2318 4.14246 14.5057 4.85844 15.3539C5.27108 15.8423 5.86429 16.0845 6.45513 16.067C6.93351 16.0806 7.41743 15.9257 7.81027 15.5921ZM4.22958 20.7084C4.95427 20.0913 5.04773 19 4.43075 18.2702C4.07672 17.8524 3.56667 17.6451 3.05899 17.6618C2.64556 17.6467 2.22579 17.7809 1.88602 18.0716C1.15816 18.6879 1.06787 19.7768 1.68168 20.5027C2.03808 20.9244 2.54814 21.1325 3.05582 21.1158C3.46925 21.1309 3.88902 20.9974 4.22958 20.7084ZM2.12917 27.0175C2.64081 26.5823 2.70733 25.8103 2.27173 25.2949C2.0167 24.9923 1.64683 24.8445 1.28013 24.862C0.981539 24.8469 0.677407 24.9414 0.431092 25.1495C-0.084508 25.5871 -0.143908 26.3599 0.286946 26.8769C0.541182 27.1787 0.91026 27.3256 1.27617 27.3082C1.57634 27.3224 1.88206 27.2271 2.12917 27.0175ZM26.3996 13.9124C29.0164 13.4827 30.6543 10.1654 30.0626 6.49933C29.5035 3.07871 27.1948 0.559512 24.7617 0.592869C24.5494 0.588898 24.3372 0.603193 24.1241 0.638137C21.5041 1.06383 19.8671 4.38279 20.4603 8.0504C21.0202 11.4758 23.3321 13.9942 25.7707 13.9569C25.9798 13.9608 26.1897 13.9465 26.3996 13.9124ZM65.5004 12.8617C66.3376 12.8807 67.1755 12.5345 67.7592 11.8427C68.7785 10.63 68.6336 8.81204 67.4187 7.78593C66.8658 7.31497 66.1855 7.09101 65.5123 7.10371C64.6759 7.08465 63.8388 7.43092 63.2566 8.12188C62.2286 9.33462 62.3791 11.151 63.5893 12.1794C64.1453 12.6504 64.8264 12.8744 65.5004 12.8617ZM73.4443 15.3554C74.165 14.5041 74.0581 13.2318 73.2114 12.513C72.8178 12.1787 72.3315 12.023 71.8523 12.0373C71.2623 12.0206 70.6691 12.2628 70.2596 12.7481C69.5428 13.5987 69.6474 14.8702 70.4956 15.5929C70.89 15.9257 71.3755 16.0813 71.8531 16.067C72.4424 16.0845 73.0332 15.8431 73.4443 15.3554ZM75.2437 21.115C75.7538 21.1332 76.2662 20.926 76.6218 20.5042C77.2356 19.7776 77.1477 18.6879 76.4199 18.07C76.0809 17.7809 75.6635 17.6475 75.2517 17.6618C74.7424 17.6435 74.2292 17.8524 73.8743 18.2725C73.2589 19 73.3484 20.0905 74.0763 20.7084C74.4153 20.9959 74.8327 21.1285 75.2437 21.115ZM77.0242 27.3066C77.3901 27.3256 77.7615 27.1787 78.0174 26.8753C78.4498 26.3607 78.3872 25.5895 77.8748 25.1495C77.6293 24.9422 77.3259 24.8477 77.0289 24.8612C76.6606 24.8422 76.2892 24.9899 76.0342 25.2941C75.5978 25.8087 75.6603 26.5815 76.1775 27.0167C76.4214 27.2256 76.7256 27.3209 77.0242 27.3066ZM52.5257 13.9585C54.9659 13.999 57.2864 11.4798 57.844 8.0504C58.438 4.38517 56.8002 1.06462 54.1826 0.638137C53.975 0.603987 53.7675 0.589692 53.5616 0.592869C51.1198 0.547599 48.8016 3.06998 48.2464 6.50092C47.6469 10.1654 49.2887 13.4827 51.9047 13.914C52.1122 13.9473 52.3189 13.9624 52.5257 13.9585Z" fill="#CCB947"/>
<path fill-rule="evenodd" clip-rule="evenodd" d="M89.7684 0C90.5945 0 91.4007 0.212051 92.1888 0.638536C92.9745 1.06264 93.5891 1.67258 94.0279 2.46281C94.4666 3.25542 94.6868 4.08139 94.6868 4.93833C94.6868 5.78892 94.4706 6.60853 94.0366 7.39241C93.6049 8.17787 92.999 8.78782 92.2173 9.22066C91.4364 9.65588 90.619 9.87269 89.7684 9.87269C88.9154 9.87269 88.0989 9.65588 87.3171 9.22066C86.5354 8.78782 85.9279 8.17787 85.4939 7.39241C85.0591 6.60853 84.8413 5.78892 84.8413 4.93833C84.8413 4.08139 85.0615 3.25542 85.5026 2.46281C85.9454 1.67258 86.56 1.06264 87.3456 0.638536C88.1345 0.212051 88.94 0 89.7684 0ZM89.7684 0.817231C89.0762 0.817231 88.4014 0.995926 87.7464 1.35093C87.0922 1.70594 86.5798 2.21502 86.2107 2.8758C85.8408 3.53657 85.6563 4.22435 85.6563 4.93833C85.6563 5.65073 85.8385 6.33215 86.202 6.9834C86.5647 7.63543 87.0724 8.14452 87.7242 8.50826C88.3768 8.8728 89.058 9.05546 89.7684 9.05546C90.4765 9.05546 91.1576 8.8728 91.8102 8.50826C92.4628 8.14452 92.9697 7.63543 93.3309 6.9834C93.6912 6.33215 93.8718 5.65073 93.8718 4.93833C93.8718 4.22435 93.6873 3.53657 93.3198 2.8758C92.9523 2.21502 92.4399 1.70594 91.7833 1.35093C91.1267 0.995926 90.4543 0.817231 89.7684 0.817231ZM87.6062 7.66244V2.35798H89.4278C90.0512 2.35798 90.501 2.40642 90.779 2.5049C91.0594 2.60339 91.2804 2.77255 91.4475 3.01875C91.6122 3.26178 91.6946 3.52069 91.6946 3.79548C91.6946 4.18146 91.556 4.52138 91.278 4.8065C91.0016 5.09479 90.6349 5.25522 90.1755 5.29096C90.3632 5.36958 90.5145 5.4633 90.6254 5.5729C90.8392 5.78018 91.0998 6.13122 91.4095 6.62442L92.055 7.66244H91.0174L90.5454 6.82773C90.1755 6.16855 89.8753 5.75556 89.648 5.59037C89.492 5.46965 89.2655 5.40929 88.9645 5.41168H88.4616V7.66244H87.6062ZM88.4616 4.67545H89.4991C89.9957 4.67545 90.3339 4.60159 90.5145 4.45387C90.6943 4.30694 90.7861 4.10998 90.7861 3.86934C90.7861 3.71288 90.741 3.57231 90.6547 3.44921C90.5676 3.32452 90.4472 3.23319 90.2935 3.17283C90.1383 3.11247 89.8532 3.0807 89.4342 3.0807H88.4616V4.67545Z" fill="#CCB947"/>
</svg>
